HIERARCHY
ROOT Hips
{
	OFFSET 0.000000 0.000000 0.000000
	CHANNELS 6 Xposition Yposition Zposition Zrotation Yrotation Xrotation 
	JOINT LeftUpLeg_virtual
	{
		OFFSET 0.000000 0.000000 0.000000
		CHANNELS 3 Zrotation Yrotation Xrotation
		JOINT LeftUpLeg
		{
			OFFSET 10.205400 -3.823500 0.155100
			CHANNELS 3 Zrotation Yrotation Xrotation
			JOINT LeftLeg
			{
				OFFSET 0.708757 -12.982077 0.567790
				CHANNELS 3 Zrotation Yrotation Xrotation
				JOINT LeftFoot
				{
					OFFSET -0.708756 -10.717838 -2.184338
					CHANNELS 3 Zrotation Yrotation Xrotation
					JOINT LeftToeBase
					{
						OFFSET 0.108149 -7.191104 7.560241
						CHANNELS 3 Zrotation Yrotation Xrotation
						End Site
						{
							OFFSET 0.000000 0.000000 0.000000
						}
					}
				}
			}
		}
	}
	JOINT RightUpLeg_virtual
	{
		OFFSET 0.000000 0.000000 0.000000
		CHANNELS 3 Zrotation Yrotation Xrotation
		JOINT RightUpLeg
		{
			OFFSET -10.205400 -3.823500 0.005500
			CHANNELS 3 Zrotation Yrotation Xrotation
			JOINT RightLeg
			{
				OFFSET -0.708756 -12.982134 0.610632
				CHANNELS 3 Zrotation Yrotation Xrotation
				JOINT RightFoot
				{
					OFFSET 0.708754 -10.717769 -1.945823
					CHANNELS 3 Zrotation Yrotation Xrotation
					JOINT RightToeBase
					{
						OFFSET -0.108140 -7.191069 7.372968
						CHANNELS 3 Zrotation Yrotation Xrotation
						End Site
						{
							OFFSET 0.000000 0.000000 0.000000
						}
					}
				}
			}
		}
	}
	JOINT Spine_virtual
	{
		OFFSET 0.000000 0.000000 0.000000
		CHANNELS 3 Zrotation Yrotation Xrotation
		JOINT Spine
		{
			OFFSET 0.000000 6.876099 0.125700
			CHANNELS 3 Zrotation Yrotation Xrotation
			JOINT Spine1
			{
				OFFSET 0.000000 8.022060 0.146608
				CHANNELS 3 Zrotation Yrotation Xrotation
				JOINT Spine2
				{
					OFFSET 0.000000 9.168068 0.167552
					CHANNELS 3 Zrotation Yrotation Xrotation
					JOINT Neck_virtual
					{
						OFFSET 0.000000 0.000000 0.000000
						CHANNELS 3 Zrotation Yrotation Xrotation
						JOINT Neck
						{
							OFFSET 0.000000 10.314075 0.188496
							CHANNELS 3 Zrotation Yrotation Xrotation
							JOINT Head
							{
								OFFSET 0.000000 7.643700 -2.377400
								CHANNELS 3 Zrotation Yrotation Xrotation
								End Site
								{
									OFFSET 0.000000 0.000000 0.000000
								}
							}
						}
					}
					JOINT LeftShoulder_virtual
					{
						OFFSET 0.000000 0.000000 0.000000
						CHANNELS 3 Zrotation Yrotation Xrotation
						JOINT LeftShoulder
						{
							OFFSET 4.392200 8.824978 0.174984
							CHANNELS 3 Zrotation Yrotation Xrotation
							JOINT LeftArm
							{
								OFFSET 8.771219 -2.981674 -0.026999
								CHANNELS 3 Zrotation Yrotation Xrotation
								JOINT LeftForeArm
								{
									OFFSET 8.512804 0.000000 -0.000000
									CHANNELS 3 Zrotation Yrotation Xrotation
									JOINT LeftHand
									{
										OFFSET 18.484802 0.000000 -0.000000
										CHANNELS 3 Zrotation Yrotation Xrotation
										End Site
										{
											OFFSET 0.000000 0.000000 0.000000
										}
									}
								}
							}
						}
					}
					JOINT RightShoulder_virtual
					{
						OFFSET 0.000000 0.000000 0.000000
						CHANNELS 3 Zrotation Yrotation Xrotation
						JOINT RightShoulder
						{
							OFFSET -4.392200 8.824993 0.141379
							CHANNELS 3 Zrotation Yrotation Xrotation
							JOINT RightArm
							{
								OFFSET -8.771282 -2.981682 -0.094208
								CHANNELS 3 Zrotation Yrotation Xrotation
								JOINT RightForeArm
								{
									OFFSET -8.494598 0.000000 0.000000
									CHANNELS 3 Zrotation Yrotation Xrotation
									JOINT RightHand
									{
										OFFSET -18.483803 0.000000 0.000001
										CHANNELS 3 Zrotation Yrotation Xrotation
										End Site
										{
											OFFSET 0.000000 0.000000 0.000000
										}
									}
								}
							}
						}
					}
				}
			}
		}
	}
}
MOTION
Frames: 4
Frame Time: 0.033333
-27.446182 35.359631 77.700241 0.661158 65.907125 0.887401 3.920623 -6.587480 17.820577 -15.427434 -12.014888 -28.802361 13.919255 -0.937478 26.042897 -11.270849 2.435202 22.885853 0.000000 0.000000 0.000000 11.241865 -3.306288 16.048481 -20.731086 2.751806 -42.505777 -4.317082 4.008699 30.958249 11.283245 13.276528 17.256101 0.000000 0.000000 0.000000 9.679042 -2.230354 14.282909 7.166143 3.997472 -6.874503 -0.048276 -4.870384 12.978064 0.031490 0.178630 0.040687 -0.312558 -3.589547 18.116686 -7.148217 12.477756 11.823773 0.000000 0.000000 0.000000 1.095042 -2.437682 14.046141 -16.654412 -14.497317 9.606927 -55.788155 10.601612 14.195736 -1.001962 -40.314785 27.150823 0.000000 0.000000 0.000000 -2.492183 -1.224827 13.771768 16.754049 8.646111 0.594285 44.420398 0.471833 -27.130843 -1.573906 28.367999 -5.887773 0.000000 0.000000 0.000000 
-27.516447 35.527542 78.504204 0.426426 68.837017 0.653315 4.714251 -6.597922 17.296500 -16.326544 -9.388106 -29.228394 15.073423 2.000157 26.014181 -9.329908 5.227746 25.097566 0.000000 0.000000 0.000000 12.296095 -3.303282 16.167307 -19.750942 1.080935 -41.519337 -4.177686 2.985114 32.861379 10.074145 12.800546 15.944066 0.000000 0.000000 0.000000 10.692855 -2.202228 14.224429 7.487410 4.350826 -7.416939 -0.092305 -5.111980 13.215956 0.018651 0.177803 0.062896 -0.266049 -4.005579 18.213874 -8.483047 13.426545 12.266555 0.000000 0.000000 0.000000 1.133318 -2.821406 14.121805 -16.397570 -14.337250 9.677505 -55.629849 10.252728 14.751446 -1.354524 -40.601653 27.828691 0.000000 0.000000 0.000000 -2.434323 -1.522527 13.763722 16.297458 8.711281 0.506403 44.378915 -0.275471 -28.456054 -1.307158 30.330370 -6.267630 0.000000 0.000000 0.000000 
-27.606112 35.737431 79.329376 0.655424 71.936843 0.725361 5.456956 -6.388454 16.666365 -17.088198 -7.212672 -29.941370 15.908479 3.663616 25.117869 -9.395391 6.456135 26.876543 0.000000 0.000000 0.000000 13.127192 -3.889604 15.961151 -18.518892 -0.570228 -39.961917 -4.195708 1.945348 33.801763 8.743758 12.038376 14.239046 0.000000 0.000000 0.000000 11.406109 -2.558341 14.310226 7.984890 4.800572 -8.229989 -0.139959 -5.402680 13.312539 0.023898 0.141781 0.059851 -0.371823 -4.199120 18.094920 -9.663087 13.991057 12.604416 0.000000 0.000000 0.000000 1.181997 -3.047101 13.950475 -15.553681 -12.932621 9.387207 -55.611253 11.130743 15.725650 -2.432753 -42.553533 28.730723 0.000000 0.000000 0.000000 -2.500768 -1.719942 13.692149 15.715758 8.627818 0.197224 44.745700 -2.002745 -29.548221 -0.993311 32.127864 -6.783387 0.000000 0.000000 0.000000 
-27.732529 35.962112 80.118202 0.672115 74.997185 0.702354 6.183278 -6.342698 16.257735 -17.536893 -5.545259 -30.719046 16.417345 3.908865 23.708041 -10.532358 6.717342 28.456426 0.000000 0.000000 0.000000 13.783594 -4.768994 15.165916 -17.154626 -1.847046 -37.550468 -4.226928 0.901742 33.135604 7.611073 11.201023 13.135589 0.000000 0.000000 0.000000 12.043154 -3.064990 14.404046 8.722466 5.463683 -9.235149 -0.249795 -5.613256 13.267946 0.014002 0.075801 0.020933 -0.454567 -4.379253 17.914282 -10.427570 14.110274 12.867973 0.000000 0.000000 0.000000 1.160459 -3.140660 13.715754 -14.415049 -10.521881 8.698123 -55.675256 12.939325 17.032946 -4.086879 -45.625746 29.798169 0.000000 0.000000 0.000000 -2.606680 -1.778760 13.473312 15.045097 8.312461 0.042689 45.078620 -4.528549 -30.478579 -0.726474 33.590665 -7.447382 0.000000 0.000000 0.000000 
